<svg xmlns="http://www.w3.org/2000/svg" viewBox="0 -15 584.58 600.37">
    <defs>
        <style>
            .cls-1{fill:#f2f2f2}
        </style>
    </defs>
    <title>
        ACT_logo_mono_compact
    </title>
    <g id="Layer_2" data-name="Layer 2">
        <g id="Layer_1-2" data-name="Layer 1">
            <path class="cls-1" d="M 190 254.4 l 10.7 17.1 C 202.4 274.4 202.5 278 200.8 280.9 c -29.8 50.6 -40 108.9 0.3 162.3 c 29 38.6 64.6 60.3 132.8 52.6 C 337.4 495.4 340.9 497.1 342.8 500.1 h 0 C 344.1 502.3 344.5 505 343.8 507.5 C 343.1 510 341.3 512.1 339 513.2 c -57 27.8 -134.6 -3 -177.8 -72.5 c -42.4 -68.2 -36.7 -149.6 10.9 -189.3 C 174.8 249.2 178.3 248.3 181.7 248.8 C 185.2 249.4 188.2 251.4 190 254.4 Z"/>
            <circle class="cls-1" cx="138" cy="517.3" r="42.7"/>
            <path class="cls-1" d="M 345.2 406.2 l 1.4 -20.1 C 346.8 382.7 348.9 379.8 352 378.4 c 53.8 -23.5 96.3 -64.6 95.2 -131.5 c -0.8 -48.2 -16.8 -86.8 -76.6 -120.6 C 367.5 124.6 365.7 121.3 366 117.7 h 0 C 366.2 115.1 367.4 112.7 369.5 111.1 C 371.6 109.5 374.2 108.8 376.8 109.3 c 62.5 11.1 107.1 81.6 101.2 163.2 C 472.2 352.5 419.8 415 357.9 419.2 C 354.4 419.4 351 418.1 348.6 415.6 C 346.1 413.1 344.9 409.7 345.2 406.2 Z"/>
            <circle class="cls-1" cx="541.8" cy="224.1" r="42.7"/>
            <path class="cls-1" d="M 308.9 192.2 l -13 15.4 C 293.7 210.2 290.3 211.4 287 210.6 C 229.6 198 171.1 206.3 132.7 261.1 c -27.7 39.5 -37.4 80.1 -8.9 142.6 C 125.3 406.9 124.7 410.7 122.5 413.4 h 0 C 120.8 415.4 118.3 416.6 115.7 416.7 C 113.1 416.8 110.6 415.8 108.8 413.9 c -44 -45.7 -38.7 -128.9 14 -191.5 C 174.6 161 253.7 141.3 306.2 174.3 C 309.1 176.1 311.1 179.2 311.7 182.6 C 312.2 186.1 311.2 189.6 308.9 192.2 Z"/>
            <circle class="cls-1" cx="42.8" cy="223.9" r="42.7"/>
            <path class="cls-1" d="M 212.4 386.7 L 232 381.8 C 235.3 381 238.7 382.1 241 384.6 c 39 43.9 91.2 71.6 154.4 49.9 c 45.6 -15.7 77.3 -42.8 91 -110.1 C 487.1 320.9 489.8 318.2 493.2 317.3 h 0 C 495.8 316.7 498.5 317.1 500.6 318.6 C 502.8 320.1 504.3 322.4 504.6 325 c 8.8 62.8 -44.5 127 -123.9 146.7 c -77.9 19.3 -153.6 -11.3 -176.7 -68.8 C 202.8 399.6 203 395.9 204.6 392.8 C 206.2 389.7 209.1 387.5 212.4 386.7 Z"/>
            <circle class="cls-1" cx="446.4" cy="517.5" r="42.7"/>
            <path class="cls-1" d="M 404.8 286.1 l -18.7 -7.6 C 383 277.2 380.8 274.3 380.4 270.9 c -5.7 -58.4 -31.7 -111.6 -95.6 -131.1 C 238.7 125.7 197.1 129 146.5 175.3 C 143.9 177.7 140.1 178.4 136.8 177.1 h 0 C 134.4 176.1 132.5 174.2 131.6 171.7 C 130.7 169.2 130.9 166.5 132.1 164.2 c 29.8 -56 110.7 -76.6 186.4 -45.8 C 392.9 148.6 436.2 217.8 421 277.9 C 420.1 281.3 417.8 284.1 414.7 285.7 C 411.6 287.2 408 287.4 404.8 286.1 Z"/>
            <circle class="cls-1" cx="292.4" cy="42.7" r="42.7"/>
            <path class="cls-1" d="M 292 255.6 c 25.9 2.1 46.1 11.7 62.4 29.2 C 355.8 286.1 356.5 287.9 356.5 289.7 C 356.4 291.6 355.6 293.3 354.2 294.5 c -3 2.7 -6.8 2.5 -9.7 -0.6 C 329.9 278.5 312 270 290.7 269.2 c -19.5 -0.7 -36.8 5.5 -52 17.9 c -2.5 2.1 -5.3 2.4 -7.8 1 s -4.2 -4.5 -3.5 -7.3 C 227.9 279.2 228.8 277.7 230 276.6 C 243.9 264.9 261 257.7 279 256.1 C 284.1 255.6 289.1 255.7 292 255.6 Z"/>
            <path class="cls-1" d="M 330.7 313.6 C 329.2 312.8 327.8 311.8 326.5 310.6 c -7.7 -8 -16.8 -13.5 -27.7 -15.8 c -16.7 -3.4 -31.6 0.6 -44.7 11.4 C 251.9 308.3 248.5 308.5 246 306.9 C 243.3 305.1 242.2 301.8 243.2 298.9 C 243.7 297.7 244.5 296.7 245.4 295.9 c 17.9 -14.5 38 -19.1 60.3 -13.2 C 317.7 285.8 328.4 292.4 336.6 301.7 C 338.2 303.2 338.9 305.4 338.5 307.6 C 338.1 309.8 336.7 311.6 334.7 312.5 C 333.4 313 332.1 313.4 330.7 313.7 Z"/>
            <path class="cls-1" d="M 289.8 304.7 c 12.2 1.1 21.7 5.6 29.2 14.1 C 321.3 321.3 321.3 325.2 319 327.7 c -2.4 2.7 -5.9 3.4 -8.7 1.5 C 309.5 328.6 308.8 327.9 308.1 327.1 C 298.1 316.3 281.3 315.4 270.1 325 c -2.2 1.9 -4.6 2.8 -7.4 1.6 C 260.2 325.6 258.5 323.2 258.4 320.5 c -0.3 -2.4 0.9 -4.2 2.7 -5.7 C 267.6 309.2 275.7 305.7 284.3 305 C 286.4 304.7 288.5 304.8 289.8 304.7 Z"/>
            <path class="cls-1" d="M 302.5 342.9 C 302 350.8 295.2 356.8 287.3 356.3 C 279.3 355.8 273.3 349 273.9 341 C 274.4 333.1 281.2 327.1 289.1 327.6 C 292.9 327.8 296.5 329.6 299 332.5 C 301.5 335.3 302.8 339.1 302.5 342.9 Z"/>
        </g>
    </g>
</svg>
