<svg xmlns="http://www.w3.org/2000/svg" viewBox="0 0 795.76 659.6">
    <defs>
        <style>
            .cls-1{fill:#2f5597}.cls-3{fill:#2f5597}.cls-4{fill:#acbbd5}
        </style>
    </defs>
    <title>
        ACT_logo_F
    </title>
    <g id="Layer_2" data-name="Layer 2">
        <g id="Layer_1-2" data-name="Layer 1">
            <path class="cls-1" d="M10.35,647.73,8,659.05H0l9.52-39.13H20.66l9.9,39.13H22.34l-2.61-11.32Zm8.43-4.82c-1.64-7.48-3-13.94-3.63-18.06h-.3c-.23,3.14-2.14,11.7-3.48,18.06Z"/>
            <path class="cls-1" d="M60.15,647.55V649c0,4.69-1.21,10.61-12.85,10.61-10.56,0-12.63-4.64-12.63-10.52V629.27c0-6.13,4.08-9.91,12.75-9.91,10.51,0,12.47,4.79,12.47,10.08v1.66H52v-2.2c0-2.81-.83-4.75-4.6-4.75S42.69,626,42.69,629v20.53c0,3.13,1,5.37,4.82,5.37s4.67-2.11,4.67-5.35v-2Z"/>
            <path class="cls-1" d="M90.88,647.55V649c0,4.69-1.21,10.61-12.86,10.61-10.56,0-12.62-4.64-12.62-10.52V629.27c0-6.13,4.07-9.91,12.74-9.91,10.51,0,12.47,4.79,12.47,10.08v1.66H82.7v-2.2c0-2.81-.84-4.75-4.61-4.75S73.41,626,73.41,629v20.53c0,3.13,1,5.37,4.82,5.37s4.67-2.11,4.67-5.35v-2Z"/>
            <path class="cls-1" d="M117.32,640.72h-13v13.5h14.88l-1,4.83H96.46V619.92h21.59v4.86H104.33V635.9h13Z"/>
            <path class="cls-1" d="M130.42,647.74v2.36c0,3.24,1.56,5,5.28,5s5-2.14,5-5.42c0-4.36-1.42-5.87-7.67-9.13s-9.58-5.37-9.58-11.15c0-5.08,2.29-10.09,12.29-10.08s11.88,4.64,11.88,9.18v2h-7.8v-1.83c0-2.95-.8-4.79-4.23-4.79s-4.28,2-4.28,4.77c0,3.14.91,4.5,6.16,7.1,8.51,4.24,11.15,6.66,11.15,13.19,0,5.52-2.68,10.68-13.18,10.68-10.26,0-12.92-4.41-12.92-9.57v-2.29Z"/>
            <path class="cls-1" d="M161.06,647.74v2.36c0,3.24,1.56,5,5.28,5s5-2.14,5-5.42c0-4.36-1.42-5.87-7.66-9.13s-9.59-5.37-9.59-11.15c0-5.08,2.3-10.09,12.3-10.08S178.3,624,178.3,628.5v2h-7.81v-1.83c0-2.95-.79-4.79-4.22-4.79s-4.28,2-4.28,4.77c0,3.14.91,4.5,6.16,7.1,8.5,4.24,11.15,6.66,11.15,13.19,0,5.52-2.68,10.68-13.18,10.68-10.27,0-12.93-4.41-12.93-9.57v-2.29Z"/>
            <path class="cls-1" d="M231,635.44l-9.11,14.84c-3.83,6.17-7.84,9.2-14.77,9.2-8.49,0-12.08-4.34-12.08-10.6s3.54-8.5,11-12.59c5.42-3,6.9-4.41,6.9-8.35,0-2.54-.64-4.2-3.57-4.2-2.71,0-3.62,1.87-3.62,4.21,0,3.31.35,4.7,3,7.62l21.72,23.48H221.7l-18.52-19.79c-3.7-4-4.75-6.08-4.75-10.81,0-5.72,3.85-9,10.86-9,7.26,0,10.73,3,10.73,8.49,0,5.37-2.41,7.57-10.26,11.7-5.7,3-7,4.42-7,8.81,0,4,1.89,5.87,5.41,5.87s5-1.65,7.18-5.31l8.17-13.57Z"/>
            <path class="cls-1" d="M272,647.55V649c0,4.69-1.21,10.61-12.86,10.61-10.56,0-12.62-4.64-12.62-10.52V629.27c0-6.13,4.07-9.91,12.75-9.91,10.51,0,12.46,4.79,12.46,10.08v1.66h-7.91v-2.2c0-2.81-.84-4.75-4.61-4.75S254.5,626,254.5,629v20.53c0,3.13,1,5.37,4.82,5.37s4.67-2.11,4.67-5.35v-2Z"/>
            <path class="cls-1" d="M304.41,630v18.88c0,7.24-4.55,10.74-14,10.74s-13.22-3.73-13.22-10.66V630c0-7.13,5.18-10.59,13.73-10.59C299.74,619.36,304.41,623,304.41,630Zm-19.19-.43v20c0,3.73,2,5.36,5.57,5.36,3.78,0,5.61-1.54,5.61-5.49V629.53c0-3.55-1.73-5.38-5.63-5.38C287.1,624.15,285.22,625.84,285.22,629.55Z"/>
            <path class="cls-1" d="M311.5,659.05V619.92h9.2c2.68,6.24,10.16,26.06,10.93,28.61h.11c-.39-5-.44-10.51-.44-16.92V619.92h7.31v39.13h-8.86c-2.39-5.8-10.44-27.29-11.25-29.56h-.09c.41,4.73.46,10.43.46,17.48v12.08Z"/>
            <path class="cls-1" d="M346.87,659.05V619.92h9.2c2.69,6.24,10.17,26.06,10.93,28.61h.12c-.39-5-.44-10.51-.44-16.92V619.92H374v39.13h-8.87c-2.38-5.8-10.44-27.29-11.24-29.56h-.09c.41,4.73.45,10.43.45,17.48v12.08Z"/>
            <path class="cls-1" d="M403.05,640.72h-13v13.5h14.89l-1,4.83H382.19V619.92h21.59v4.86H390.05V635.9h13Z"/>
            <path class="cls-1" d="M434.54,647.55V649c0,4.69-1.21,10.61-12.86,10.61-10.56,0-12.62-4.64-12.62-10.52V629.27c0-6.13,4.07-9.91,12.75-9.91,10.51,0,12.47,4.79,12.47,10.08v1.66h-7.92v-2.2c0-2.81-.83-4.75-4.6-4.75s-4.69,1.8-4.69,4.81v20.53c0,3.13,1,5.37,4.82,5.37s4.67-2.11,4.67-5.35v-2Z"/>
            <path class="cls-1" d="M446.73,624.78h-9.45v-4.86H464v4.86h-9.45v34.27h-7.86Z"/>
            <path class="cls-1" d="M476.05,619.92v39.13h-7.86V619.92Z"/>
            <path class="cls-1" d="M491.11,659.05l-10.25-39.13h8.5l3.45,16.6c1.09,5.35,2.55,11.37,3.08,15.69H496c.49-4.11,2-10.17,3.07-15.56l3.37-16.73h8.41l-10.1,39.13Z"/>
            <path class="cls-1" d="M523.28,619.92v39.13h-7.87V619.92Z"/>
            <path class="cls-1" d="M537.05,624.78h-9.44v-4.86h26.76v4.86h-9.46v34.27h-7.86Z"/>
            <path class="cls-1" d="M568.16,659.05V644.88a2.59,2.59,0,0,0-.3-1.22L557,619.92h8.68c2.59,6.65,5.63,14.43,6.56,18.41h.08c1.18-4.27,4.21-12,6.59-18.41h8.35l-11,24.15a4.07,4.07,0,0,0-.18,1.36v13.62Z"/>
            <path class="cls-1" d="M607.71,624.78h-9.44v-4.86H625v4.86h-9.45v34.27h-7.87Z"/>
            <path class="cls-1" d="M655,630v18.88c0,7.24-4.55,10.74-14,10.74s-13.22-3.73-13.22-10.66V630c0-7.13,5.18-10.59,13.73-10.59C650.34,619.36,655,623,655,630Zm-19.19-.43v20c0,3.73,2,5.36,5.57,5.36,3.78,0,5.6-1.54,5.6-5.49V629.53c0-3.55-1.72-5.38-5.63-5.38C637.7,624.15,635.82,625.84,635.82,629.55Z"/>
            <path class="cls-1" d="M688.19,630v18.88c0,7.24-4.55,10.74-14,10.74S661,655.87,661,648.94V630c0-7.13,5.18-10.59,13.73-10.59C683.52,619.36,688.19,623,688.19,630ZM669,629.55v20c0,3.73,2,5.36,5.57,5.36,3.78,0,5.61-1.54,5.61-5.49V629.53c0-3.55-1.73-5.38-5.64-5.38C670.88,624.15,669,625.84,669,629.55Z"/>
            <path class="cls-1" d="M695.27,619.92h7.87v34.43h14.74l-.73,4.7H695.27Z"/>
            <path class="cls-1" d="M721.7,619.92h7.74V638.1h.09c2.32-3.79,7.89-12.63,11.36-18.18h8.71l-10.9,15.34,11.69,23.79h-8.56l-8.47-18.3-3.92,5.35v12.95H721.7Z"/>
            <path class="cls-1" d="M761.6,619.92v39.13h-7.86V619.92Z"/>
            <path class="cls-1" d="M775.38,624.78h-9.45v-4.86h26.76v4.86h-9.45v34.27h-7.86Z"/>
            <line x1="2.4" y1="591.04" x2="795.76" y2="591.04" style="fill:#31589d;stroke:#2f5597;stroke-miterlimit:10;stroke-width:2.74px"/>
            <path class="cls-3" d="M294.09,254.41l10.64,17.12a9.09,9.09,0,0,1,.14,9.42c-29.74,50.63-39.94,108.86.29,162.29,29,38.55,64.6,60.34,132.81,52.56a9.21,9.21,0,0,1,8.86,4.27h0a9.23,9.23,0,0,1-3.76,13.16c-57,27.75-134.58-3-177.77-72.51-42.4-68.18-36.74-149.55,10.87-189.29A12.06,12.06,0,0,1,294.09,254.41Z"/>
            <circle class="cls-3" cx="242.02" cy="517.34" r="42.74"/>
            <path class="cls-3" d="M449.22,406.23l1.45-20.11a9.08,9.08,0,0,1,5.42-7.69c53.83-23.49,96.3-64.6,95.16-131.47-.82-48.24-16.79-86.78-76.55-120.58a9.21,9.21,0,0,1-4.66-8.67h0a9.22,9.22,0,0,1,10.78-8.43c62.46,11.07,107.09,81.56,101.2,163.15C576.24,352.5,523.84,415,462,419.18A12,12,0,0,1,449.22,406.23Z"/>
            <circle class="cls-3" cx="645.89" cy="224.13" r="42.74"/>
            <path class="cls-3" d="M413,192.23l-13,15.41a9.09,9.09,0,0,1-8.91,3C333.7,198,275.17,206.33,236.79,261.1c-27.69,39.51-37.43,80.09-8.95,142.56a9.2,9.2,0,0,1-1.32,9.75h0a9.23,9.23,0,0,1-13.68.48c-44-45.67-38.7-128.93,14-191.47,51.75-61.39,130.88-81.15,183.4-48.15A12.05,12.05,0,0,1,413,192.23Z"/>
            <circle class="cls-3" cx="146.8" cy="223.95" r="42.74"/>
            <path class="cls-3" d="M316.5,386.67l19.57-4.83a9.1,9.1,0,0,1,9,2.78c39,43.94,91.19,71.63,154.44,49.88,45.62-15.69,77.34-42.79,91-110.07a9.22,9.22,0,0,1,6.81-7.11h0A9.22,9.22,0,0,1,608.69,325c8.77,62.82-44.48,127-123.89,146.66-77.95,19.25-153.59-11.28-176.68-68.84A12.06,12.06,0,0,1,316.5,386.67Z"/>
            <circle class="cls-3" cx="550.47" cy="517.45" r="42.74"/>
            <path class="cls-3" d="M508.83,286.06l-18.68-7.6a9.11,9.11,0,0,1-5.65-7.53c-5.69-58.45-31.67-111.55-95.62-131.14-46.13-14.12-87.73-10.84-138.34,35.55a9.2,9.2,0,0,1-9.68,1.75h0a9.23,9.23,0,0,1-4.69-12.86c29.83-56,110.66-76.64,186.44-45.83C497,148.64,540.23,217.8,525.08,277.94A12.07,12.07,0,0,1,508.83,286.06Z"/>
            <circle class="cls-3" cx="396.41" cy="42.74" r="42.74"/>
            <path class="cls-4" d="M396.09,255.58c25.92,2.13,46.11,11.67,62.45,29.2a6.54,6.54,0,0,1-.26,9.74c-3,2.74-6.81,2.51-9.73-.56C433.92,278.54,416,270,394.76,269.22c-19.53-.73-36.86,5.51-52,17.86-2.55,2.07-5.35,2.43-7.8,1s-4.23-4.51-3.48-7.26a8.65,8.65,0,0,1,2.62-4.21,88,88,0,0,1,49-20.54C388.12,255.62,393.14,255.69,396.09,255.58Z"/>
            <path class="cls-4" d="M434.8,313.65a25.71,25.71,0,0,1-4.23-3c-7.68-8-16.79-13.53-27.72-15.75-16.7-3.39-31.56.62-44.69,11.35a6.61,6.61,0,0,1-8.12.6,6.85,6.85,0,0,1-2.77-8,7.64,7.64,0,0,1,2.23-3c17.85-14.54,38-19.07,60.27-13.2a63,63,0,0,1,30.92,19,6.69,6.69,0,0,1-2,10.88A22.59,22.59,0,0,1,434.8,313.65Z"/>
            <path class="cls-4" d="M393.84,304.71c12.17,1.06,21.66,5.65,29.21,14.12a6.45,6.45,0,0,1,0,8.83c-2.4,2.74-5.89,3.37-8.72,1.48a12.84,12.84,0,0,1-2.12-2A27.45,27.45,0,0,0,374.18,325c-2.23,1.89-4.64,2.82-7.41,1.62a7.09,7.09,0,0,1-4.34-6.12c-.26-2.43.9-4.17,2.68-5.69a40.78,40.78,0,0,1,23.22-9.84C390.45,304.73,392.6,304.75,393.84,304.71Z"/>
            <path class="cls-4" d="M406.58,342.9a14.37,14.37,0,1,1-13.43-15.29A14.33,14.33,0,0,1,406.58,342.9Z"/>
        </g>
    </g>
</svg>
