<svg xmlns="http://www.w3.org/2000/svg" viewBox="50 0 700 600">
    <defs>
        <style>
            .cls-1{fill:#c00}.cls-3{fill:#2f5597}.cls-4{fill:#acbbd5}
        </style>
    </defs>
    <title>
        ACT_logo_F
    </title>
    <g id="Layer_2" data-name="Layer 2">
        <g id="Layer_1-2" data-name="Layer 1">
            <path class="cls-3" d="M294.09,254.41l10.64,17.12a9.09,9.09,0,0,1,.14,9.42c-29.74,50.63-39.94,108.86.29,162.29,29,38.55,64.6,60.34,132.81,52.56a9.21,9.21,0,0,1,8.86,4.27h0a9.23,9.23,0,0,1-3.76,13.16c-57,27.75-134.58-3-177.77-72.51-42.4-68.18-36.74-149.55,10.87-189.29A12.06,12.06,0,0,1,294.09,254.41Z"/>
            <circle class="cls-3" cx="242.02" cy="517.34" r="42.74"/>
            <path class="cls-3" d="M449.22,406.23l1.45-20.11a9.08,9.08,0,0,1,5.42-7.69c53.83-23.49,96.3-64.6,95.16-131.47-.82-48.24-16.79-86.78-76.55-120.58a9.21,9.21,0,0,1-4.66-8.67h0a9.22,9.22,0,0,1,10.78-8.43c62.46,11.07,107.09,81.56,101.2,163.15C576.24,352.5,523.84,415,462,419.18A12,12,0,0,1,449.22,406.23Z"/>
            <circle class="cls-3" cx="645.89" cy="224.13" r="42.74"/>
            <path class="cls-3" d="M413,192.23l-13,15.41a9.09,9.09,0,0,1-8.91,3C333.7,198,275.17,206.33,236.79,261.1c-27.69,39.51-37.43,80.09-8.95,142.56a9.2,9.2,0,0,1-1.32,9.75h0a9.23,9.23,0,0,1-13.68.48c-44-45.67-38.7-128.93,14-191.47,51.75-61.39,130.88-81.15,183.4-48.15A12.05,12.05,0,0,1,413,192.23Z"/>
            <circle class="cls-3" cx="146.8" cy="223.95" r="42.74"/>
            <path class="cls-3" d="M316.5,386.67l19.57-4.83a9.1,9.1,0,0,1,9,2.78c39,43.94,91.19,71.63,154.44,49.88,45.62-15.69,77.34-42.79,91-110.07a9.22,9.22,0,0,1,6.81-7.11h0A9.22,9.22,0,0,1,608.69,325c8.77,62.82-44.48,127-123.89,146.66-77.95,19.25-153.59-11.28-176.68-68.84A12.06,12.06,0,0,1,316.5,386.67Z"/>
            <circle class="cls-3" cx="550.47" cy="517.45" r="42.74"/>
            <path class="cls-3" d="M508.83,286.06l-18.68-7.6a9.11,9.11,0,0,1-5.65-7.53c-5.69-58.45-31.67-111.55-95.62-131.14-46.13-14.12-87.73-10.84-138.34,35.55a9.2,9.2,0,0,1-9.68,1.75h0a9.23,9.23,0,0,1-4.69-12.86c29.83-56,110.66-76.64,186.44-45.83C497,148.64,540.23,217.8,525.08,277.94A12.07,12.07,0,0,1,508.83,286.06Z"/>
            <circle class="cls-3" cx="396.41" cy="42.74" r="42.74"/>
            <path class="cls-4" d="M396.09,255.58c25.92,2.13,46.11,11.67,62.45,29.2a6.54,6.54,0,0,1-.26,9.74c-3,2.74-6.81,2.51-9.73-.56C433.92,278.54,416,270,394.76,269.22c-19.53-.73-36.86,5.51-52,17.86-2.55,2.07-5.35,2.43-7.8,1s-4.23-4.51-3.48-7.26a8.65,8.65,0,0,1,2.62-4.21,88,88,0,0,1,49-20.54C388.12,255.62,393.14,255.69,396.09,255.58Z"/>
            <path class="cls-4" d="M434.8,313.65a25.71,25.71,0,0,1-4.23-3c-7.68-8-16.79-13.53-27.72-15.75-16.7-3.39-31.56.62-44.69,11.35a6.61,6.61,0,0,1-8.12.6,6.85,6.85,0,0,1-2.77-8,7.64,7.64,0,0,1,2.23-3c17.85-14.54,38-19.07,60.27-13.2a63,63,0,0,1,30.92,19,6.69,6.69,0,0,1-2,10.88A22.59,22.59,0,0,1,434.8,313.65Z"/>
            <path class="cls-4" d="M393.84,304.71c12.17,1.06,21.66,5.65,29.21,14.12a6.45,6.45,0,0,1,0,8.83c-2.4,2.74-5.89,3.37-8.72,1.48a12.84,12.84,0,0,1-2.12-2A27.45,27.45,0,0,0,374.18,325c-2.23,1.89-4.64,2.82-7.41,1.62a7.09,7.09,0,0,1-4.34-6.12c-.26-2.43.9-4.17,2.68-5.69a40.78,40.78,0,0,1,23.22-9.84C390.45,304.73,392.6,304.75,393.84,304.71Z"/>
            <path class="cls-4" d="M406.58,342.9a14.37,14.37,0,1,1-13.43-15.29A14.33,14.33,0,0,1,406.58,342.9Z"/>
        </g>
    </g>
</svg>
