<svg xmlns="http://www.w3.org/2000/svg" viewBox="0 0 584.58 650.37"><defs><style>.cls-1,.cls-2{fill:#c2c2c2;}.cls-2{stroke:#a4adbc;stroke-miterlimit:10;stroke-width:2.01px;}</style></defs><title>ACT_logo_mono</title><g id="Layer_2" data-name="Layer 2"><g id="Layer_1-2" data-name="Layer 1"><path class="cls-1" d="M10.63,641.7,8.9,650H3.07l7-28.6h8.14L25.4,650h-6l-1.9-8.27Zm6.16-3.53C15.59,632.71,14.6,628,14.14,625h-.22c-.17,2.29-1.56,8.55-2.54,13.19Z"/><path class="cls-1" d="M47,641.56v1.06c0,3.42-.89,7.75-9.4,7.75-7.72,0-9.22-3.39-9.22-7.69V628.21c0-4.48,3-7.24,9.31-7.24,7.68,0,9.11,3.49,9.11,7.36v1.21H41.05v-1.6c0-2.05-.61-3.47-3.37-3.47s-3.42,1.31-3.42,3.51v15c0,2.29.72,3.93,3.53,3.93s3.41-1.55,3.41-3.91v-1.44Z"/><path class="cls-1" d="M69.48,641.56v1.06c0,3.42-.89,7.75-9.4,7.75-7.71,0-9.22-3.39-9.22-7.69V628.21c0-4.48,3-7.24,9.31-7.24,7.68,0,9.11,3.49,9.11,7.36v1.21H63.5v-1.6c0-2.05-.61-3.47-3.36-3.47s-3.43,1.31-3.43,3.51v15c0,2.29.72,3.93,3.53,3.93s3.41-1.55,3.41-3.91v-1.44Z"/><path class="cls-1" d="M88.8,636.57H79.31v9.87H90.18L89.44,650H73.56v-28.6H89.34v3.56h-10v8.12H88.8Z"/><path class="cls-1" d="M98.38,641.71v1.72c0,2.36,1.14,3.66,3.85,3.66s3.68-1.57,3.68-4c0-3.18-1-4.28-5.6-6.67s-7-3.93-7-8.15c0-3.71,1.67-7.37,9-7.36s8.68,3.38,8.68,6.71v1.44h-5.7v-1.34c0-2.15-.58-3.5-3.09-3.5s-3.12,1.45-3.12,3.49c0,2.29.66,3.29,4.5,5.19,6.21,3.09,8.14,4.86,8.14,9.63,0,4-2,7.81-9.63,7.81-7.5,0-9.44-3.22-9.44-7v-1.67Z"/><path class="cls-1" d="M120.76,641.71v1.72c0,2.36,1.14,3.66,3.86,3.66s3.68-1.57,3.68-4c0-3.18-1-4.28-5.6-6.67s-7-3.93-7-8.15c0-3.71,1.67-7.37,9-7.36s8.68,3.38,8.68,6.71v1.44h-5.7v-1.34c0-2.15-.58-3.5-3.09-3.5s-3.13,1.45-3.13,3.49c0,2.29.67,3.29,4.5,5.19,6.22,3.09,8.15,4.86,8.15,9.63,0,4-2,7.81-9.63,7.81-7.5,0-9.44-3.22-9.44-7v-1.67Z"/><path class="cls-1" d="M171.86,632.71l-6.66,10.85c-2.8,4.51-5.73,6.73-10.8,6.73-6.2,0-8.82-3.18-8.82-7.75s2.58-6.21,8-9.2c4-2.16,5-3.22,5-6.1,0-1.86-.47-3.08-2.61-3.08-2,0-2.65,1.37-2.65,3.09,0,2.41.26,3.42,2.22,5.56L171.5,650h-6.42L151.54,635.5c-2.7-2.89-3.47-4.44-3.47-7.89,0-4.18,2.82-6.58,7.94-6.58,5.3,0,7.84,2.17,7.84,6.21s-1.76,5.52-7.5,8.55c-4.16,2.22-5.14,3.23-5.14,6.43,0,2.91,1.38,4.29,3.95,4.29s3.63-1.2,5.25-3.88l6-9.92Z"/><path class="cls-1" d="M201.81,641.56v1.06c0,3.42-.88,7.75-9.39,7.75-7.72,0-9.23-3.39-9.23-7.69V628.21c0-4.48,3-7.24,9.32-7.24,7.68,0,9.11,3.49,9.11,7.36v1.21h-5.79v-1.6c0-2.05-.6-3.47-3.36-3.47s-3.42,1.31-3.42,3.51v15c0,2.29.71,3.93,3.52,3.93S196,645.36,196,643v-1.44Z"/><path class="cls-1" d="M225.52,628.72v13.8c0,5.29-3.32,7.85-10.21,7.85s-9.67-2.72-9.67-7.79V628.71c0-5.22,3.79-7.74,10-7.74C222.11,621,225.52,623.64,225.52,628.72Zm-14-.31V643c0,2.73,1.48,3.92,4.07,3.92,2.76,0,4.1-1.13,4.1-4V628.4c0-2.6-1.27-3.93-4.12-3.93C212.87,624.47,211.5,625.7,211.5,628.41Z"/><path class="cls-1" d="M230.7,650v-28.6h6.72c2,4.57,7.43,19,8,20.91h.08c-.28-3.65-.32-7.68-.32-12.36v-8.55h5.34V650H244c-1.74-4.24-7.63-20-8.21-21.6h-.07c.3,3.45.34,7.62.34,12.77V650Z"/><path class="cls-1" d="M256.55,650v-28.6h6.72c2,4.57,7.43,19,8,20.91h.08c-.28-3.65-.32-7.68-.32-12.36v-8.55h5.34V650h-6.47c-1.75-4.24-7.63-20-8.22-21.6h-.07c.31,3.45.34,7.62.34,12.77V650Z"/><path class="cls-1" d="M297.6,636.57h-9.5v9.87H299l-.74,3.53H282.36v-28.6h15.77v3.56h-10v8.12h9.5Z"/><path class="cls-1" d="M320.61,641.56v1.06c0,3.42-.88,7.75-9.39,7.75-7.72,0-9.23-3.39-9.23-7.69V628.21c0-4.48,3-7.24,9.32-7.24,7.68,0,9.11,3.49,9.11,7.36v1.21h-5.78v-1.6c0-2.05-.61-3.47-3.37-3.47s-3.42,1.31-3.42,3.51v15c0,2.29.72,3.93,3.52,3.93s3.41-1.55,3.41-3.91v-1.44Z"/><path class="cls-1" d="M329.52,624.93h-6.9v-3.56h19.55v3.56h-6.9v25h-5.75Z"/><path class="cls-1" d="M351,621.37V650H345.2v-28.6Z"/><path class="cls-1" d="M362,650l-7.48-28.6h6.2l2.52,12.14c.8,3.91,1.87,8.31,2.25,11.46h.11c.37-3,1.5-7.43,2.25-11.37l2.46-12.23h6.15L369,650Z"/><path class="cls-1" d="M385.46,621.37V650h-5.75v-28.6Z"/><path class="cls-1" d="M395.52,624.93h-6.9v-3.56h19.56v3.56h-6.91v25h-5.75Z"/><path class="cls-1" d="M418.26,650V639.61a1.92,1.92,0,0,0-.22-.89l-7.94-17.35h6.34a139,139,0,0,1,4.79,13.46h.06c.86-3.12,3.07-8.74,4.82-13.46h6.1L424.13,639a3.13,3.13,0,0,0-.13,1v10Z"/><path class="cls-1" d="M447.16,624.93h-6.9v-3.56h19.56v3.56h-6.91v25h-5.75Z"/><path class="cls-1" d="M481.72,628.72v13.8c0,5.29-3.32,7.85-10.21,7.85s-9.66-2.72-9.66-7.79V628.71c0-5.22,3.78-7.74,10-7.74C478.31,621,481.72,623.64,481.72,628.72Zm-14-.31V643c0,2.73,1.48,3.92,4.07,3.92,2.76,0,4.1-1.13,4.1-4V628.4c0-2.6-1.26-3.93-4.12-3.93C469.07,624.47,467.7,625.7,467.7,628.41Z"/><path class="cls-1" d="M506,628.72v13.8c0,5.29-3.32,7.85-10.21,7.85s-9.67-2.72-9.67-7.79V628.71c0-5.22,3.79-7.74,10-7.74C502.56,621,506,623.64,506,628.72Zm-14-.31V643c0,2.73,1.48,3.92,4.07,3.92,2.76,0,4.1-1.13,4.1-4V628.4c0-2.6-1.27-3.93-4.12-3.93C493.32,624.47,492,625.7,492,628.41Z"/><path class="cls-1" d="M511.15,621.37h5.74v25.16h10.78l-.54,3.44h-16Z"/><path class="cls-1" d="M530.46,621.37h5.65v13.29h.07c1.7-2.77,5.77-9.23,8.3-13.29h6.37l-8,11.21L551.43,650h-6.26L539,636.59l-2.87,3.92V650h-5.65Z"/><path class="cls-1" d="M559.62,621.37V650h-5.75v-28.6Z"/><path class="cls-1" d="M569.68,624.93h-6.9v-3.56h19.56v3.56h-6.91v25h-5.75Z"/><line class="cls-2" x1="4.82" y1="600.27" x2="584.58" y2="600.27"/><path class="cls-1" d="M190,254.41l10.65,17.12a9.13,9.13,0,0,1,.14,9.42c-29.75,50.63-39.95,108.86.28,162.29,29,38.55,64.6,60.34,132.81,52.56a9.24,9.24,0,0,1,8.87,4.27h0A9.22,9.22,0,0,1,339,513.23c-57,27.75-134.58-3-177.77-72.51-42.39-68.18-36.73-149.55,10.88-189.29A12,12,0,0,1,190,254.41Z"/><circle class="cls-1" cx="137.96" cy="517.34" r="42.74"/><path class="cls-1" d="M345.16,406.23l1.45-20.11a9.08,9.08,0,0,1,5.42-7.69c53.83-23.49,96.31-64.6,95.17-131.47-.82-48.24-16.8-86.78-76.56-120.58a9.23,9.23,0,0,1-4.66-8.67h0a9.22,9.22,0,0,1,10.78-8.43c62.46,11.07,107.1,81.56,101.21,163.15C472.19,352.5,419.78,415,357.9,419.18A12.05,12.05,0,0,1,345.16,406.23Z"/><circle class="cls-1" cx="541.83" cy="224.13" r="42.74"/><path class="cls-1" d="M308.9,192.23l-13,15.41a9.08,9.08,0,0,1-8.91,3C229.64,198,171.12,206.33,132.73,261.1c-27.69,39.51-37.42,80.09-8.94,142.56a9.22,9.22,0,0,1-1.33,9.75h0a9.23,9.23,0,0,1-13.68.48c-44-45.67-38.7-128.93,14-191.47C174.55,161,253.69,141.27,306.2,174.27A12,12,0,0,1,308.9,192.23Z"/><circle class="cls-1" cx="42.75" cy="223.95" r="42.74"/><path class="cls-1" d="M212.44,386.67,232,381.84a9.12,9.12,0,0,1,9,2.78c39,43.94,91.18,71.63,154.43,49.88,45.63-15.69,77.35-42.79,91-110.07a9.21,9.21,0,0,1,6.8-7.11h0A9.22,9.22,0,0,1,504.63,325c8.77,62.82-44.47,127-123.89,146.66-77.94,19.25-153.58-11.28-176.67-68.84A12.06,12.06,0,0,1,212.44,386.67Z"/><circle class="cls-1" cx="446.41" cy="517.45" r="42.74"/><path class="cls-1" d="M404.77,286.06l-18.67-7.6a9.09,9.09,0,0,1-5.65-7.53c-5.7-58.45-31.67-111.55-95.62-131.14C238.69,125.67,197.1,129,146.49,175.34a9.21,9.21,0,0,1-9.69,1.75h0a9.22,9.22,0,0,1-4.68-12.86c29.83-56,110.66-76.64,186.43-45.83C392.93,148.64,436.18,217.8,421,277.94A12.06,12.06,0,0,1,404.77,286.06Z"/><circle class="cls-1" cx="292.35" cy="42.74" r="42.74"/><path class="cls-1" d="M292,255.58c25.92,2.13,46.1,11.67,62.45,29.2a6.54,6.54,0,0,1-.27,9.74c-3,2.74-6.81,2.51-9.73-.56C329.86,278.54,312,270,290.7,269.22c-19.52-.73-36.85,5.51-52,17.86-2.54,2.07-5.35,2.43-7.8,1s-4.23-4.51-3.48-7.26a8.72,8.72,0,0,1,2.62-4.21,88,88,0,0,1,49-20.54C284.06,255.62,289.08,255.69,292,255.58Z"/><path class="cls-1" d="M330.74,313.65a25.22,25.22,0,0,1-4.22-3c-7.68-8-16.8-13.53-27.73-15.75-16.69-3.39-31.56.62-44.68,11.35a6.61,6.61,0,0,1-8.12.6,6.85,6.85,0,0,1-2.77-8,7.72,7.72,0,0,1,2.22-3c17.86-14.54,38-19.07,60.27-13.2a63,63,0,0,1,30.92,19,6.68,6.68,0,0,1-1.95,10.88A22.47,22.47,0,0,1,330.74,313.65Z"/><path class="cls-1" d="M289.78,304.71c12.18,1.06,21.67,5.65,29.21,14.12a6.45,6.45,0,0,1,0,8.83c-2.41,2.74-5.9,3.37-8.72,1.48a12.9,12.9,0,0,1-2.13-2A27.44,27.44,0,0,0,270.13,325c-2.24,1.89-4.64,2.82-7.42,1.62a7.09,7.09,0,0,1-4.33-6.12c-.27-2.43.9-4.17,2.67-5.69a40.81,40.81,0,0,1,23.22-9.84C286.4,304.73,288.54,304.75,289.78,304.71Z"/><path class="cls-1" d="M302.53,342.9a14.37,14.37,0,1,1-13.44-15.29A14.34,14.34,0,0,1,302.53,342.9Z"/></g></g></svg>