<?xml version="1.0" encoding="UTF-8" standalone="no"?>
<!-- Generator: Adobe Illustrator 22.0.1, SVG Export Plug-In . SVG Version: 6.00 Build 0)  -->

<svg
   xmlns:dc="http://purl.org/dc/elements/1.1/"
   xmlns:cc="http://creativecommons.org/ns#"
   xmlns:rdf="http://www.w3.org/1999/02/22-rdf-syntax-ns#"
   xmlns:svg="http://www.w3.org/2000/svg"
   xmlns="http://www.w3.org/2000/svg"
   xmlns:sodipodi="http://sodipodi.sourceforge.net/DTD/sodipodi-0.dtd"
   xmlns:inkscape="http://www.inkscape.org/namespaces/inkscape"
   version="1.1"
   id="Layer_1"
   x="0px"
   y="0px"
   viewBox="0 0 239 250.5"
   style="enable-background:new 0 0 239 250.5;"
   xml:space="preserve"
   inkscape:version="0.91 r13725"
   sodipodi:docname="BCATlogo_white.svg"
   inkscape:export-xdpi="89.386589"
   inkscape:export-ydpi="89.386589"><metadata
     id="metadata3815"><rdf:RDF><cc:Work
         rdf:about=""><dc:format>image/svg+xml</dc:format><dc:type
           rdf:resource="http://purl.org/dc/dcmitype/StillImage" /><dc:title></dc:title></cc:Work></rdf:RDF></metadata><defs
     id="defs3813" /><sodipodi:namedview
     pagecolor="#ffffff"
     bordercolor="#666666"
     borderopacity="1"
     objecttolerance="10"
     gridtolerance="10"
     guidetolerance="10"
     inkscape:pageopacity="0"
     inkscape:pageshadow="2"
     inkscape:window-width="1280"
     inkscape:window-height="690"
     id="namedview3811"
     showgrid="false"
     inkscape:zoom="0.94211577"
     inkscape:cx="236.78919"
     inkscape:cy="125.25"
     inkscape:window-x="0"
     inkscape:window-y="1"
     inkscape:window-maximized="1"
     inkscape:current-layer="Layer_1" /><style
     type="text/css"
     id="style3716">
	.st0{fill:#112E51;}
	.st1{font-family:'Merriweather';}
	.st2{font-size:96.7259px;}
	.st3{letter-spacing:-11;}
	.st4{letter-spacing:-20;}
	.st5{letter-spacing:-15;}
	.st6{fill:none;stroke:#02BFE7;stroke-width:5;stroke-miterlimit:10;}
	.st7{fill:#02BFE7;}
	.st8{fill:#94BFA2;}
	.st9{fill:#8BA6CA;}
	.st10{fill:#4AA564;}
	.st11{fill:#238540;}
	.st12{fill:#FAD980;}
	.st13{fill:#2E8540;}
	.st14{font-weight:'bold'}
</style><text
     transform="matrix(1 0 0 1 9.6395 230.7126)"
     id="text3718"
     style="fill:#ffffff;"><tspan
       x="0"
       y="0"
       class="st0 st1 st2 st3"
       id="tspan3720"
       style="fill:#ffffff;">B</tspan><tspan
       x="57.1"
       y="0.5"
       class="st0 st1 st2 st4"
       id="tspan3722"
       style="fill:#ffffff;">C</tspan><tspan
       x="99.8"
       y="0.8"
       class="st0 st1 st2 st5"
       id="tspan3724"
       style="fill:#ffffff;">A</tspan><tspan
       x="152.5"
       y="0.9"
       class="st0 st1 st2"
       id="tspan3726"
       style="fill:#ffffff;">T</tspan></text>
<g
     id="g3728"><g
       id="g3730"><g
         id="g3732"><line
           class="st6"
           x1="207.8"
           y1="82.7"
           x2="207.8"
           y2="143.9"
           id="line3734" /><g
           id="g3736"><path
             class="st7"
             d="M199.6,143.5c0,4.6,3.7,8.3,8.3,8.3s8.3-3.7,8.3-8.3c0-4.6-3.7-8.3-8.3-8.3S199.6,138.9,199.6,143.5z"
             id="path3738" /></g></g></g><g
       id="g3740"><g
         id="g3742"><line
           class="st6"
           x1="149.8"
           y1="85.7"
           x2="149.8"
           y2="146.9"
           id="line3744" /><g
           id="g3746"><path
             class="st7"
             d="M141.6,146.5c0,4.6,3.7,8.3,8.3,8.3s8.3-3.7,8.3-8.3c0-4.6-3.7-8.3-8.3-8.3S141.6,141.9,141.6,146.5z"
             id="path3748" /></g></g></g><g
       id="g3750"><g
         id="g3752"><line
           class="st6"
           x1="91.8"
           y1="85.7"
           x2="91.8"
           y2="146.9"
           id="line3754" /><g
           id="g3756"><path
             class="st7"
             d="M83.6,146.5c0,4.6,3.7,8.3,8.3,8.3c4.6,0,8.3-3.7,8.3-8.3c0-4.6-3.7-8.3-8.3-8.3      C87.3,138.2,83.6,141.9,83.6,146.5z"
             id="path3758" /></g></g></g><g
       id="g3760"><g
         id="g3762"><line
           class="st6"
           x1="33.8"
           y1="85.7"
           x2="33.8"
           y2="146.9"
           id="line3764" /><g
           id="g3766"><path
             class="st7"
             d="M25.6,146.5c0,4.6,3.7,8.3,8.3,8.3c4.6,0,8.3-3.7,8.3-8.3c0-4.6-3.7-8.3-8.3-8.3      C29.3,138.2,25.6,141.9,25.6,146.5z"
             id="path3768" /></g></g></g><line
       class="st6"
       x1="32.8"
       y1="88.2"
       x2="206.8"
       y2="85.2"
       id="line3770" /><g
       id="g3772"><g
         id="XMLID_2_"><g
           id="g3775"><path
             class="st8"
             d="M119.4,127.1c-0.5,0-1.1,0-1.6,0V105c12.7,0.2,23.7-2.3,32.5-5.3c-2.1,9-4.9,16.3-7.1,21.5l0.2,0.4      C136.1,125.1,128,127.1,119.4,127.1z"
             id="path3777" /><path
             class="st9"
             d="M117.8,105v22.1c-9.1-0.3-17.6-2.8-25-7l0.2-0.4c-2-5.4-4.2-12.1-5.9-20.1c8,2.9,17.9,5.2,29.3,5.5      C116.9,105,117.3,105,117.8,105z"
             id="path3779" /><path
             class="st10"
             d="M143.3,121.5l-0.2-0.4c2.2-5.2,5-12.5,7.1-21.5c10.1-3.5,17.3-7.9,20.8-10.2l0.3,0.1      C166.5,103.6,156.3,115.1,143.3,121.5z"
             id="path3781" /><path
             class="st8"
             d="M93,119.6l-0.2,0.4c-11.6-6.6-20.6-17.3-25.2-30.2c3.8,2.5,10.5,6.4,19.6,9.6C88.9,107.5,91,114.3,93,119.6      z"
             id="path3783" /><path
             class="st10"
             d="M150.2,99.7c-8.8,3.1-19.8,5.5-32.5,5.3V71.1h35.9C153.6,81.8,152.2,91.5,150.2,99.7z"
             id="path3785" /><path
             class="st8"
             d="M117.8,105c-0.4,0-0.9,0-1.3,0c-11.4-0.3-21.3-2.6-29.3-5.5c-1.8-8.3-3.1-17.8-3.2-28.4h33.9V105z"
             id="path3787" /><path
             class="st11"
             d="M87.1,99.5c-9-3.2-15.7-7.1-19.6-9.6c-2.1-5.9-3.2-12.2-3.3-18.8l0.8,0h18.8C84,81.7,85.4,91.2,87.1,99.5z      "
             id="path3789" /><path
             class="st9"
             d="M171.1,89.4c-3.5,2.3-10.7,6.7-20.8,10.2c1.9-8.2,3.4-17.8,3.5-28.6h20.8c0,6.5-1.2,12.7-3.2,18.5      L171.1,89.4z"
             id="path3791" /><path
             class="st9"
             d="M65.1,71.1l-0.8,0c0-0.1,0-0.3,0-0.4c0-6.4,1-12.5,2.9-18.2c3.7-2.4,10.2-6.2,19-9.5      c-1.3,7.3-2.3,15.5-2.4,24.5c0,1.2,0,2.4,0,3.6H65.1z"
             id="path3793" /><path
             class="st11"
             d="M117.8,71.1H83.9c0-1.2,0-2.4,0-3.6c0.1-9,1-17.2,2.4-24.5c8.3-3,18.6-5.5,30.6-5.9c0.3,0,0.6,0,0.9,0      V71.1z"
             id="path3795" /><path
             class="st12"
             d="M153.7,71.1h-35.9v-34c12.9-0.2,24,2.2,32.9,5.2c1.8,8.1,3,17.5,3,27.9C153.7,70.5,153.7,70.8,153.7,71.1z      "
             id="path3797" /><path
             class="st10"
             d="M174.5,71.1h-20.8c0-0.3,0-0.5,0-0.8c0-10.4-1.2-19.8-3-27.9c10.1,3.5,17.3,7.8,20.9,10.1      c1.9,5.7,2.9,11.8,2.9,18.2C174.5,70.8,174.5,70.9,174.5,71.1z"
             id="path3799" /><path
             class="st13"
             d="M86.3,43c-8.9,3.3-15.4,7.1-19,9.5c4.3-13,13.2-23.9,24.6-30.7C89.8,27.5,87.8,34.7,86.3,43z"
             id="path3801" /><path
             class="st12"
             d="M86.3,43c1.5-8.3,3.6-15.5,5.6-21.2c7.7-4.6,16.5-7.3,26-7.5v22.9c-0.3,0-0.6,0-0.9,0      C104.8,37.4,94.5,40,86.3,43z"
             id="path3803" /><path
             class="st12"
             d="M171.6,52.5c-3.6-2.4-10.9-6.7-20.9-10.1c-2.1-9.4-4.9-17-7.2-22.5C156.6,26.4,166.9,38.2,171.6,52.5z"
             id="path3805" /><path
             class="st8"
             d="M117.8,37.1V14.3c0.5,0,1.1,0,1.6,0c8.6,0,16.8,2,24.1,5.7c2.3,5.5,5.1,13.1,7.2,22.5      C141.8,39.3,130.6,36.9,117.8,37.1z"
             id="path3807" /></g><g
           id="g3809" /></g></g></g></svg>